<mxfile host="app.diagrams.net" agent="Mozilla/5.0 (Windows NT 10.0; Win64; x64) AppleWebKit/537.36 (KHTML, like Gecko) Chrome/140.0.0.0 Safari/537.36" version="28.2.5">
  <diagram name="Page-1" id="D7A3hRXi8sjnXgM3Vncy">
    <mxGraphModel grid="1" page="1" gridSize="10" guides="1" tooltips="1" connect="1" arrows="1" fold="1" pageScale="1" pageWidth="850" pageHeight="1100" math="0" shadow="0">
      <root>
        <mxCell id="0" />
        <mxCell id="1" parent="0" />
        <mxCell id="ZfCj1toXuSuC-5furzQ7-1" style="edgeStyle=orthogonalEdgeStyle;rounded=0;orthogonalLoop=1;jettySize=auto;html=1;strokeWidth=5;endArrow=classic;endFill=1;startArrow=classic;startFill=1;entryX=0.5;entryY=1;entryDx=0;entryDy=0;exitX=0.476;exitY=1.011;exitDx=0;exitDy=0;exitPerimeter=0;" edge="1" parent="1">
          <mxGeometry relative="1" as="geometry">
            <Array as="points">
              <mxPoint x="659.84" y="510" />
              <mxPoint x="953.84" y="510" />
            </Array>
            <mxPoint x="953.84" y="470" as="targetPoint" />
            <mxPoint x="660.0000000000001" y="470.44000000000005" as="sourcePoint" />
          </mxGeometry>
        </mxCell>
        <mxCell id="EmmmP5cw6zoP9wVPyDhg-17" value="Vedaa Ubale" style="rounded=0;whiteSpace=wrap;html=1;fillColor=none;verticalAlign=top;" vertex="1" parent="1">
          <mxGeometry x="640" y="90" width="550" height="380" as="geometry" />
        </mxCell>
        <mxCell id="EmmmP5cw6zoP9wVPyDhg-18" value="Microchip PIC18F57Q43 Curiosity Nano" style="rounded=0;whiteSpace=wrap;html=1;verticalAlign=top;fillColor=none;movable=1;resizable=1;rotatable=1;deletable=1;editable=1;locked=0;connectable=1;" vertex="1" parent="1">
          <mxGeometry x="790" y="130" width="260" height="200" as="geometry" />
        </mxCell>
        <mxCell id="EmmmP5cw6zoP9wVPyDhg-32" style="edgeStyle=orthogonalEdgeStyle;rounded=0;orthogonalLoop=1;jettySize=auto;html=1;entryX=0.5;entryY=0;entryDx=0;entryDy=0;exitX=0.5;exitY=1;exitDx=0;exitDy=0;" edge="1" parent="1" source="EmmmP5cw6zoP9wVPyDhg-45" target="EmmmP5cw6zoP9wVPyDhg-185">
          <mxGeometry relative="1" as="geometry">
            <mxPoint x="930" y="430" as="targetPoint" />
          </mxGeometry>
        </mxCell>
        <mxCell id="EmmmP5cw6zoP9wVPyDhg-42" style="edgeStyle=orthogonalEdgeStyle;rounded=0;orthogonalLoop=1;jettySize=auto;html=1;exitX=0.5;exitY=0;exitDx=0;exitDy=0;entryX=0.5;entryY=1;entryDx=0;entryDy=0;" edge="1" parent="1" source="EmmmP5cw6zoP9wVPyDhg-173" target="EmmmP5cw6zoP9wVPyDhg-44">
          <mxGeometry relative="1" as="geometry">
            <mxPoint x="760" y="430" as="sourcePoint" />
          </mxGeometry>
        </mxCell>
        <mxCell id="EmmmP5cw6zoP9wVPyDhg-46" style="edgeStyle=orthogonalEdgeStyle;rounded=0;orthogonalLoop=1;jettySize=auto;html=1;exitX=1;exitY=0.5;exitDx=0;exitDy=0;entryX=0.5;entryY=1;entryDx=0;entryDy=0;" edge="1" parent="1" source="EmmmP5cw6zoP9wVPyDhg-47" target="EmmmP5cw6zoP9wVPyDhg-48">
          <mxGeometry relative="1" as="geometry" />
        </mxCell>
        <mxCell id="EmmmP5cw6zoP9wVPyDhg-47" value="Button 1" style="rounded=0;whiteSpace=wrap;html=1;" vertex="1" parent="1">
          <mxGeometry x="690" y="340" width="60" height="30" as="geometry" />
        </mxCell>
        <mxCell id="EmmmP5cw6zoP9wVPyDhg-64" style="edgeStyle=orthogonalEdgeStyle;rounded=0;orthogonalLoop=1;jettySize=auto;html=1;exitX=0.5;exitY=1;exitDx=0;exitDy=0;entryX=0;entryY=0.75;entryDx=0;entryDy=0;" edge="1" parent="1" source="EmmmP5cw6zoP9wVPyDhg-58" target="EmmmP5cw6zoP9wVPyDhg-60">
          <mxGeometry relative="1" as="geometry" />
        </mxCell>
        <mxCell id="EmmmP5cw6zoP9wVPyDhg-65" style="edgeStyle=orthogonalEdgeStyle;rounded=0;orthogonalLoop=1;jettySize=auto;html=1;exitX=0.5;exitY=1;exitDx=0;exitDy=0;entryX=0;entryY=0.25;entryDx=0;entryDy=0;" edge="1" parent="1" source="EmmmP5cw6zoP9wVPyDhg-59" target="EmmmP5cw6zoP9wVPyDhg-60">
          <mxGeometry relative="1" as="geometry" />
        </mxCell>
        <mxCell id="EmmmP5cw6zoP9wVPyDhg-60" value="&lt;div&gt;&lt;span&gt;H-Bridge&lt;/span&gt;&lt;/div&gt;&lt;div&gt;Texas Instruments DRV8871&lt;/div&gt;" style="rounded=0;whiteSpace=wrap;html=1;labelBackgroundColor=none;" vertex="1" parent="1">
          <mxGeometry x="1090" y="330" width="80" height="60" as="geometry" />
        </mxCell>
        <mxCell id="EmmmP5cw6zoP9wVPyDhg-61" value="&lt;div&gt;Motor&lt;/div&gt;&lt;div&gt;Pololu&lt;/div&gt;&lt;div&gt;&amp;nbsp;37D 12V&lt;/div&gt;" style="rounded=0;whiteSpace=wrap;html=1;" vertex="1" parent="1">
          <mxGeometry x="1080" y="410" width="100" height="50" as="geometry" />
        </mxCell>
        <mxCell id="EmmmP5cw6zoP9wVPyDhg-62" style="edgeStyle=orthogonalEdgeStyle;rounded=0;orthogonalLoop=1;jettySize=auto;html=1;exitX=0.5;exitY=1;exitDx=0;exitDy=0;entryX=0.5;entryY=0;entryDx=0;entryDy=0;" edge="1" parent="1" source="EmmmP5cw6zoP9wVPyDhg-60" target="EmmmP5cw6zoP9wVPyDhg-61">
          <mxGeometry relative="1" as="geometry" />
        </mxCell>
        <mxCell id="EmmmP5cw6zoP9wVPyDhg-75" value="" style="group" connectable="0" vertex="1" parent="1">
          <mxGeometry x="790" y="210" width="80" height="50" as="geometry" />
        </mxCell>
        <mxCell id="EmmmP5cw6zoP9wVPyDhg-76" value="ADC1" style="rounded=0;whiteSpace=wrap;html=1;align=right;" vertex="1" parent="EmmmP5cw6zoP9wVPyDhg-75">
          <mxGeometry width="80" height="50" as="geometry" />
        </mxCell>
        <mxCell id="EmmmP5cw6zoP9wVPyDhg-77" value="RA0" style="rounded=0;whiteSpace=wrap;html=1;" vertex="1" parent="EmmmP5cw6zoP9wVPyDhg-75">
          <mxGeometry y="10" width="40" height="30" as="geometry" />
        </mxCell>
        <mxCell id="EmmmP5cw6zoP9wVPyDhg-78" value="" style="group" connectable="0" vertex="1" parent="1">
          <mxGeometry x="800" y="270" width="220" height="60" as="geometry" />
        </mxCell>
        <mxCell id="EmmmP5cw6zoP9wVPyDhg-19" value="Digital I/O" style="rounded=0;whiteSpace=wrap;html=1;fillColor=none;verticalAlign=top;" vertex="1" parent="EmmmP5cw6zoP9wVPyDhg-78">
          <mxGeometry width="220" height="60" as="geometry" />
        </mxCell>
        <mxCell id="EmmmP5cw6zoP9wVPyDhg-44" value="RA1" style="rounded=0;whiteSpace=wrap;html=1;" vertex="1" parent="EmmmP5cw6zoP9wVPyDhg-78">
          <mxGeometry x="10" y="30" width="40" height="30" as="geometry" />
        </mxCell>
        <mxCell id="EmmmP5cw6zoP9wVPyDhg-45" value="&lt;div&gt;RB2&lt;/div&gt;" style="rounded=0;whiteSpace=wrap;html=1;" vertex="1" parent="EmmmP5cw6zoP9wVPyDhg-78">
          <mxGeometry x="50" y="30" width="40" height="30" as="geometry" />
        </mxCell>
        <mxCell id="EmmmP5cw6zoP9wVPyDhg-48" value="RC4" style="rounded=0;whiteSpace=wrap;html=1;" vertex="1" parent="EmmmP5cw6zoP9wVPyDhg-78">
          <mxGeometry x="90" y="30" width="40" height="30" as="geometry" />
        </mxCell>
        <mxCell id="EmmmP5cw6zoP9wVPyDhg-58" value="RD0" style="rounded=0;whiteSpace=wrap;html=1;" vertex="1" parent="EmmmP5cw6zoP9wVPyDhg-78">
          <mxGeometry x="130" y="30" width="40" height="30" as="geometry" />
        </mxCell>
        <mxCell id="EmmmP5cw6zoP9wVPyDhg-59" value="RD1" style="rounded=0;whiteSpace=wrap;html=1;" vertex="1" parent="EmmmP5cw6zoP9wVPyDhg-78">
          <mxGeometry x="170" y="30" width="40" height="30" as="geometry" />
        </mxCell>
        <mxCell id="EmmmP5cw6zoP9wVPyDhg-82" value="PWM" style="rounded=0;whiteSpace=wrap;html=1;align=left;" vertex="1" parent="1">
          <mxGeometry x="970" y="190" width="80" height="50" as="geometry" />
        </mxCell>
        <mxCell id="EmmmP5cw6zoP9wVPyDhg-85" style="edgeStyle=orthogonalEdgeStyle;rounded=0;orthogonalLoop=1;jettySize=auto;html=1;exitX=1;exitY=0.5;exitDx=0;exitDy=0;entryX=0;entryY=0.5;entryDx=0;entryDy=0;" edge="1" parent="1" source="EmmmP5cw6zoP9wVPyDhg-83" target="EmmmP5cw6zoP9wVPyDhg-84">
          <mxGeometry relative="1" as="geometry" />
        </mxCell>
        <mxCell id="EmmmP5cw6zoP9wVPyDhg-83" value="&lt;div&gt;RA2&lt;/div&gt;" style="rounded=0;whiteSpace=wrap;html=1;" vertex="1" parent="1">
          <mxGeometry x="1010" y="200" width="40" height="30" as="geometry" />
        </mxCell>
        <mxCell id="EmmmP5cw6zoP9wVPyDhg-84" value="&lt;div&gt;Red LED&lt;/div&gt;" style="rounded=0;whiteSpace=wrap;html=1;" vertex="1" parent="1">
          <mxGeometry x="1070" y="200" width="60" height="30" as="geometry" />
        </mxCell>
        <mxCell id="EmmmP5cw6zoP9wVPyDhg-139" style="edgeStyle=orthogonalEdgeStyle;rounded=0;orthogonalLoop=1;jettySize=auto;html=1;entryX=0.5;entryY=0;entryDx=0;entryDy=0;" edge="1" parent="1" source="EmmmP5cw6zoP9wVPyDhg-140" target="EmmmP5cw6zoP9wVPyDhg-141">
          <mxGeometry relative="1" as="geometry" />
        </mxCell>
        <mxCell id="EmmmP5cw6zoP9wVPyDhg-140" value="&lt;div&gt;Distance sensor&lt;/div&gt;&lt;div&gt;MaxBotix&lt;/div&gt;&lt;div&gt;&lt;span style=&quot;background-color: transparent; color: light-dark(rgb(0, 0, 0), rgb(255, 255, 255));&quot;&gt;MB7066 XL-MaxSonar-WR&lt;/span&gt;&lt;/div&gt;" style="rounded=0;whiteSpace=wrap;html=1;" vertex="1" parent="1">
          <mxGeometry x="650" y="130" width="110" height="60" as="geometry" />
        </mxCell>
        <mxCell id="EmmmP5cw6zoP9wVPyDhg-142" style="edgeStyle=orthogonalEdgeStyle;rounded=0;orthogonalLoop=1;jettySize=auto;html=1;exitX=1;exitY=0.5;exitDx=0;exitDy=0;entryX=0;entryY=0.5;entryDx=0;entryDy=0;" edge="1" parent="1" source="EmmmP5cw6zoP9wVPyDhg-141" target="EmmmP5cw6zoP9wVPyDhg-77">
          <mxGeometry relative="1" as="geometry" />
        </mxCell>
        <mxCell id="EmmmP5cw6zoP9wVPyDhg-141" value="&lt;div&gt;Op Amp&lt;/div&gt;&lt;div&gt;&lt;div&gt;Microchip Technology&lt;/div&gt;&lt;div&gt;MCP6004-I/P&lt;/div&gt;&lt;/div&gt;" style="rounded=0;whiteSpace=wrap;html=1;" vertex="1" parent="1">
          <mxGeometry x="650" y="210" width="110" height="60" as="geometry" />
        </mxCell>
        <mxCell id="EmmmP5cw6zoP9wVPyDhg-168" value="" style="group" connectable="0" vertex="1" parent="1">
          <mxGeometry x="730" y="410" width="160" height="60" as="geometry" />
        </mxCell>
        <mxCell id="EmmmP5cw6zoP9wVPyDhg-169" value="connector 1" style="rounded=0;whiteSpace=wrap;html=1;verticalAlign=bottom;" vertex="1" parent="EmmmP5cw6zoP9wVPyDhg-168">
          <mxGeometry width="160" height="60" as="geometry" />
        </mxCell>
        <mxCell id="EmmmP5cw6zoP9wVPyDhg-170" value="digital" style="rounded=0;whiteSpace=wrap;html=1;verticalAlign=bottom;" vertex="1" parent="EmmmP5cw6zoP9wVPyDhg-168">
          <mxGeometry y="20" width="100" height="20" as="geometry" />
        </mxCell>
        <mxCell id="EmmmP5cw6zoP9wVPyDhg-171" value="analog" style="rounded=0;whiteSpace=wrap;html=1;verticalAlign=bottom;" vertex="1" parent="EmmmP5cw6zoP9wVPyDhg-168">
          <mxGeometry x="100" y="20" width="40" height="20" as="geometry" />
        </mxCell>
        <mxCell id="EmmmP5cw6zoP9wVPyDhg-172" value="1" style="rounded=0;whiteSpace=wrap;html=1;" vertex="1" parent="EmmmP5cw6zoP9wVPyDhg-168">
          <mxGeometry width="20" height="20" as="geometry" />
        </mxCell>
        <mxCell id="EmmmP5cw6zoP9wVPyDhg-173" value="2" style="rounded=0;whiteSpace=wrap;html=1;" vertex="1" parent="EmmmP5cw6zoP9wVPyDhg-168">
          <mxGeometry x="20" width="20" height="20" as="geometry" />
        </mxCell>
        <mxCell id="EmmmP5cw6zoP9wVPyDhg-174" value="3" style="rounded=0;whiteSpace=wrap;html=1;" vertex="1" parent="EmmmP5cw6zoP9wVPyDhg-168">
          <mxGeometry x="40" width="20" height="20" as="geometry" />
        </mxCell>
        <mxCell id="EmmmP5cw6zoP9wVPyDhg-175" value="4" style="rounded=0;whiteSpace=wrap;html=1;" vertex="1" parent="EmmmP5cw6zoP9wVPyDhg-168">
          <mxGeometry x="60" width="20" height="20" as="geometry" />
        </mxCell>
        <mxCell id="EmmmP5cw6zoP9wVPyDhg-176" value="5" style="rounded=0;whiteSpace=wrap;html=1;" vertex="1" parent="EmmmP5cw6zoP9wVPyDhg-168">
          <mxGeometry x="80" width="20" height="20" as="geometry" />
        </mxCell>
        <mxCell id="EmmmP5cw6zoP9wVPyDhg-177" value="6" style="rounded=0;whiteSpace=wrap;html=1;" vertex="1" parent="EmmmP5cw6zoP9wVPyDhg-168">
          <mxGeometry x="100" width="20" height="20" as="geometry" />
        </mxCell>
        <mxCell id="EmmmP5cw6zoP9wVPyDhg-178" value="7" style="rounded=0;whiteSpace=wrap;html=1;" vertex="1" parent="EmmmP5cw6zoP9wVPyDhg-168">
          <mxGeometry x="120" width="20" height="20" as="geometry" />
        </mxCell>
        <mxCell id="EmmmP5cw6zoP9wVPyDhg-179" value="8" style="rounded=0;whiteSpace=wrap;html=1;" vertex="1" parent="EmmmP5cw6zoP9wVPyDhg-168">
          <mxGeometry x="140" width="20" height="20" as="geometry" />
        </mxCell>
        <mxCell id="EmmmP5cw6zoP9wVPyDhg-180" value="" style="group" connectable="0" vertex="1" parent="1">
          <mxGeometry x="900" y="410" width="160" height="60" as="geometry" />
        </mxCell>
        <mxCell id="EmmmP5cw6zoP9wVPyDhg-181" value="connector 2" style="rounded=0;whiteSpace=wrap;html=1;verticalAlign=bottom;" vertex="1" parent="EmmmP5cw6zoP9wVPyDhg-180">
          <mxGeometry width="160" height="60" as="geometry" />
        </mxCell>
        <mxCell id="EmmmP5cw6zoP9wVPyDhg-182" value="digital" style="rounded=0;whiteSpace=wrap;html=1;verticalAlign=bottom;" vertex="1" parent="EmmmP5cw6zoP9wVPyDhg-180">
          <mxGeometry y="20" width="100" height="20" as="geometry" />
        </mxCell>
        <mxCell id="EmmmP5cw6zoP9wVPyDhg-183" value="analog" style="rounded=0;whiteSpace=wrap;html=1;verticalAlign=bottom;" vertex="1" parent="EmmmP5cw6zoP9wVPyDhg-180">
          <mxGeometry x="100" y="20" width="40" height="20" as="geometry" />
        </mxCell>
        <mxCell id="EmmmP5cw6zoP9wVPyDhg-184" value="1" style="rounded=0;whiteSpace=wrap;html=1;" vertex="1" parent="EmmmP5cw6zoP9wVPyDhg-180">
          <mxGeometry width="20" height="20" as="geometry" />
        </mxCell>
        <mxCell id="EmmmP5cw6zoP9wVPyDhg-185" value="2" style="rounded=0;whiteSpace=wrap;html=1;" vertex="1" parent="EmmmP5cw6zoP9wVPyDhg-180">
          <mxGeometry x="20" width="20" height="20" as="geometry" />
        </mxCell>
        <mxCell id="EmmmP5cw6zoP9wVPyDhg-186" value="3" style="rounded=0;whiteSpace=wrap;html=1;" vertex="1" parent="EmmmP5cw6zoP9wVPyDhg-180">
          <mxGeometry x="40" width="20" height="20" as="geometry" />
        </mxCell>
        <mxCell id="EmmmP5cw6zoP9wVPyDhg-187" value="4" style="rounded=0;whiteSpace=wrap;html=1;" vertex="1" parent="EmmmP5cw6zoP9wVPyDhg-180">
          <mxGeometry x="60" width="20" height="20" as="geometry" />
        </mxCell>
        <mxCell id="EmmmP5cw6zoP9wVPyDhg-188" value="5" style="rounded=0;whiteSpace=wrap;html=1;" vertex="1" parent="EmmmP5cw6zoP9wVPyDhg-180">
          <mxGeometry x="80" width="20" height="20" as="geometry" />
        </mxCell>
        <mxCell id="EmmmP5cw6zoP9wVPyDhg-189" value="6" style="rounded=0;whiteSpace=wrap;html=1;" vertex="1" parent="EmmmP5cw6zoP9wVPyDhg-180">
          <mxGeometry x="100" width="20" height="20" as="geometry" />
        </mxCell>
        <mxCell id="EmmmP5cw6zoP9wVPyDhg-190" value="7" style="rounded=0;whiteSpace=wrap;html=1;" vertex="1" parent="EmmmP5cw6zoP9wVPyDhg-180">
          <mxGeometry x="120" width="20" height="20" as="geometry" />
        </mxCell>
        <mxCell id="EmmmP5cw6zoP9wVPyDhg-191" value="8" style="rounded=0;whiteSpace=wrap;html=1;" vertex="1" parent="EmmmP5cw6zoP9wVPyDhg-180">
          <mxGeometry x="140" width="20" height="20" as="geometry" />
        </mxCell>
        <mxCell id="UaHAsReIl7Xdw6n602xb-1" value="&lt;div style=&quot;font-size: 16px&quot;&gt;&lt;b style=&quot;font-size: 16px&quot;&gt;Block Diagram -- Team 202: Autocan&lt;/b&gt;&lt;/div&gt;&lt;div style=&quot;font-size: 16px&quot;&gt;Member Lia Ryan, Vedaa Ubale, Damien Novgorodov, Mohammed Ali D Alqarni&lt;/div&gt;" style="text;html=1;strokeColor=none;fillColor=none;align=center;verticalAlign=middle;whiteSpace=wrap;rounded=0;fontSize=16;" vertex="1" parent="1">
          <mxGeometry x="-260" y="50" width="660" height="60" as="geometry" />
        </mxCell>
        <mxCell id="VtUgZ8RMURYfYbp3t8Ui-1" value="Lia - User Motion Sensor and Output LEDs" style="rounded=0;whiteSpace=wrap;html=1;fillColor=none;verticalAlign=top;" vertex="1" parent="1">
          <mxGeometry x="-820" y="110" width="630" height="505" as="geometry" />
        </mxCell>
        <mxCell id="VtUgZ8RMURYfYbp3t8Ui-2" value="Microchip PIC18F57Q43 Curiosity Nano" style="rounded=0;whiteSpace=wrap;html=1;verticalAlign=top;fillColor=none;movable=1;resizable=1;rotatable=1;deletable=1;editable=1;locked=0;connectable=1;" vertex="1" parent="1">
          <mxGeometry x="-660" y="175" width="330" height="300" as="geometry" />
        </mxCell>
        <mxCell id="VtUgZ8RMURYfYbp3t8Ui-3" style="edgeStyle=orthogonalEdgeStyle;rounded=0;orthogonalLoop=1;jettySize=auto;html=1;exitX=0.5;exitY=1;exitDx=0;exitDy=0;entryX=0.5;entryY=0;entryDx=0;entryDy=0;" edge="1" parent="1" source="VtUgZ8RMURYfYbp3t8Ui-4" target="VtUgZ8RMURYfYbp3t8Ui-55">
          <mxGeometry relative="1" as="geometry" />
        </mxCell>
        <mxCell id="VtUgZ8RMURYfYbp3t8Ui-4" value="Digital I/O" style="rounded=0;whiteSpace=wrap;html=1;fillColor=none;verticalAlign=top;" vertex="1" parent="1">
          <mxGeometry x="-650" y="415" width="310" height="60" as="geometry" />
        </mxCell>
        <mxCell id="VtUgZ8RMURYfYbp3t8Ui-5" style="edgeStyle=orthogonalEdgeStyle;rounded=0;orthogonalLoop=1;jettySize=auto;html=1;entryX=0;entryY=0.5;entryDx=0;entryDy=0;startArrow=none;startFill=0;exitX=1;exitY=0.5;exitDx=0;exitDy=0;" edge="1" parent="1" source="VtUgZ8RMURYfYbp3t8Ui-19" target="VtUgZ8RMURYfYbp3t8Ui-7">
          <mxGeometry relative="1" as="geometry">
            <mxPoint x="-660" y="285" as="targetPoint" />
            <mxPoint x="-680" y="250" as="sourcePoint" />
          </mxGeometry>
        </mxCell>
        <mxCell id="VtUgZ8RMURYfYbp3t8Ui-6" style="edgeStyle=orthogonalEdgeStyle;rounded=0;orthogonalLoop=1;jettySize=auto;html=1;exitX=0.5;exitY=0;exitDx=0;exitDy=0;entryX=0.5;entryY=1;entryDx=0;entryDy=0;" edge="1" parent="1" source="VtUgZ8RMURYfYbp3t8Ui-25" target="VtUgZ8RMURYfYbp3t8Ui-8">
          <mxGeometry relative="1" as="geometry">
            <mxPoint x="-690" y="525" as="sourcePoint" />
          </mxGeometry>
        </mxCell>
        <mxCell id="VtUgZ8RMURYfYbp3t8Ui-7" value="ADC1" style="rounded=0;whiteSpace=wrap;html=1;align=right;" vertex="1" parent="1">
          <mxGeometry x="-660" y="225" width="80" height="50" as="geometry" />
        </mxCell>
        <mxCell id="VtUgZ8RMURYfYbp3t8Ui-8" value="RA1" style="rounded=0;whiteSpace=wrap;html=1;" vertex="1" parent="1">
          <mxGeometry x="-640" y="445" width="40" height="30" as="geometry" />
        </mxCell>
        <mxCell id="VtUgZ8RMURYfYbp3t8Ui-9" value="&lt;div&gt;RB2&lt;/div&gt;" style="rounded=0;whiteSpace=wrap;html=1;" vertex="1" parent="1">
          <mxGeometry x="-600" y="445" width="40" height="30" as="geometry" />
        </mxCell>
        <mxCell id="VtUgZ8RMURYfYbp3t8Ui-10" style="edgeStyle=orthogonalEdgeStyle;rounded=0;orthogonalLoop=1;jettySize=auto;html=1;exitX=1;exitY=0.5;exitDx=0;exitDy=0;entryX=0.5;entryY=1;entryDx=0;entryDy=0;" edge="1" parent="1" source="VtUgZ8RMURYfYbp3t8Ui-11" target="VtUgZ8RMURYfYbp3t8Ui-12">
          <mxGeometry relative="1" as="geometry" />
        </mxCell>
        <mxCell id="VtUgZ8RMURYfYbp3t8Ui-11" value="Button 1" style="rounded=0;whiteSpace=wrap;html=1;" vertex="1" parent="1">
          <mxGeometry x="-800" y="495" width="60" height="30" as="geometry" />
        </mxCell>
        <mxCell id="VtUgZ8RMURYfYbp3t8Ui-12" value="RC4" style="rounded=0;whiteSpace=wrap;html=1;" vertex="1" parent="1">
          <mxGeometry x="-560" y="445" width="40" height="30" as="geometry" />
        </mxCell>
        <mxCell id="VtUgZ8RMURYfYbp3t8Ui-13" value="RB1" style="rounded=0;whiteSpace=wrap;html=1;labelBackgroundColor=none;" vertex="1" parent="1">
          <mxGeometry x="-520" y="445" width="40" height="30" as="geometry" />
        </mxCell>
        <mxCell id="VtUgZ8RMURYfYbp3t8Ui-14" value="RA0" style="rounded=0;whiteSpace=wrap;html=1;" vertex="1" parent="1">
          <mxGeometry x="-660" y="235" width="40" height="30" as="geometry" />
        </mxCell>
        <mxCell id="VtUgZ8RMURYfYbp3t8Ui-15" value="PWM" style="rounded=0;whiteSpace=wrap;html=1;align=left;" vertex="1" parent="1">
          <mxGeometry x="-410" y="225" width="80" height="50" as="geometry" />
        </mxCell>
        <mxCell id="VtUgZ8RMURYfYbp3t8Ui-16" value="&lt;div&gt;RA2&lt;/div&gt;" style="rounded=0;whiteSpace=wrap;html=1;" vertex="1" parent="1">
          <mxGeometry x="-370" y="235" width="40" height="30" as="geometry" />
        </mxCell>
        <mxCell id="VtUgZ8RMURYfYbp3t8Ui-17" style="edgeStyle=orthogonalEdgeStyle;rounded=0;orthogonalLoop=1;jettySize=auto;html=1;entryX=0.5;entryY=0;entryDx=0;entryDy=0;" edge="1" parent="1" source="VtUgZ8RMURYfYbp3t8Ui-18" target="VtUgZ8RMURYfYbp3t8Ui-19">
          <mxGeometry relative="1" as="geometry" />
        </mxCell>
        <mxCell id="VtUgZ8RMURYfYbp3t8Ui-18" value="&lt;div&gt;Photo Transistor&lt;/div&gt;&lt;div&gt;&lt;div&gt;Everlight Electronics&lt;/div&gt;&lt;div&gt;PT204-6B&lt;/div&gt;&lt;/div&gt;" style="rounded=0;whiteSpace=wrap;html=1;" vertex="1" parent="1">
          <mxGeometry x="-800" y="155" width="120" height="50" as="geometry" />
        </mxCell>
        <mxCell id="VtUgZ8RMURYfYbp3t8Ui-19" value="&lt;div&gt;Op Amp&lt;/div&gt;&lt;div&gt;&lt;div&gt;Microchip Technology&lt;/div&gt;&lt;div&gt;MCP6004-I/P&lt;/div&gt;&lt;/div&gt;" style="rounded=0;whiteSpace=wrap;html=1;" vertex="1" parent="1">
          <mxGeometry x="-800" y="225" width="120" height="50" as="geometry" />
        </mxCell>
        <mxCell id="VtUgZ8RMURYfYbp3t8Ui-20" value="" style="group" connectable="0" vertex="1" parent="1">
          <mxGeometry x="-710" y="555" width="160" height="60" as="geometry" />
        </mxCell>
        <mxCell id="VtUgZ8RMURYfYbp3t8Ui-21" value="Weight Sensor Connector" style="rounded=0;whiteSpace=wrap;html=1;verticalAlign=bottom;" vertex="1" parent="VtUgZ8RMURYfYbp3t8Ui-20">
          <mxGeometry width="160" height="60" as="geometry" />
        </mxCell>
        <mxCell id="VtUgZ8RMURYfYbp3t8Ui-22" value="digital" style="rounded=0;whiteSpace=wrap;html=1;verticalAlign=bottom;" vertex="1" parent="VtUgZ8RMURYfYbp3t8Ui-20">
          <mxGeometry y="20" width="100" height="20" as="geometry" />
        </mxCell>
        <mxCell id="VtUgZ8RMURYfYbp3t8Ui-23" value="analog" style="rounded=0;whiteSpace=wrap;html=1;verticalAlign=bottom;" vertex="1" parent="VtUgZ8RMURYfYbp3t8Ui-20">
          <mxGeometry x="100" y="20" width="40" height="20" as="geometry" />
        </mxCell>
        <mxCell id="VtUgZ8RMURYfYbp3t8Ui-24" value="1" style="rounded=0;whiteSpace=wrap;html=1;" vertex="1" parent="VtUgZ8RMURYfYbp3t8Ui-20">
          <mxGeometry width="20" height="20" as="geometry" />
        </mxCell>
        <mxCell id="VtUgZ8RMURYfYbp3t8Ui-25" value="2" style="rounded=0;whiteSpace=wrap;html=1;" vertex="1" parent="VtUgZ8RMURYfYbp3t8Ui-20">
          <mxGeometry x="20" width="20" height="20" as="geometry" />
        </mxCell>
        <mxCell id="VtUgZ8RMURYfYbp3t8Ui-26" value="3" style="rounded=0;whiteSpace=wrap;html=1;" vertex="1" parent="VtUgZ8RMURYfYbp3t8Ui-20">
          <mxGeometry x="40" width="20" height="20" as="geometry" />
        </mxCell>
        <mxCell id="VtUgZ8RMURYfYbp3t8Ui-27" value="4" style="rounded=0;whiteSpace=wrap;html=1;" vertex="1" parent="VtUgZ8RMURYfYbp3t8Ui-20">
          <mxGeometry x="60" width="20" height="20" as="geometry" />
        </mxCell>
        <mxCell id="VtUgZ8RMURYfYbp3t8Ui-28" value="5" style="rounded=0;whiteSpace=wrap;html=1;" vertex="1" parent="VtUgZ8RMURYfYbp3t8Ui-20">
          <mxGeometry x="80" width="20" height="20" as="geometry" />
        </mxCell>
        <mxCell id="VtUgZ8RMURYfYbp3t8Ui-29" value="6" style="rounded=0;whiteSpace=wrap;html=1;" vertex="1" parent="VtUgZ8RMURYfYbp3t8Ui-20">
          <mxGeometry x="100" width="20" height="20" as="geometry" />
        </mxCell>
        <mxCell id="VtUgZ8RMURYfYbp3t8Ui-30" value="7" style="rounded=0;whiteSpace=wrap;html=1;" vertex="1" parent="VtUgZ8RMURYfYbp3t8Ui-20">
          <mxGeometry x="120" width="20" height="20" as="geometry" />
        </mxCell>
        <mxCell id="VtUgZ8RMURYfYbp3t8Ui-31" value="8" style="rounded=0;whiteSpace=wrap;html=1;" vertex="1" parent="VtUgZ8RMURYfYbp3t8Ui-20">
          <mxGeometry x="140" width="20" height="20" as="geometry" />
        </mxCell>
        <mxCell id="VtUgZ8RMURYfYbp3t8Ui-32" value="" style="group" connectable="0" vertex="1" parent="1">
          <mxGeometry x="-540" y="555" width="160" height="60" as="geometry" />
        </mxCell>
        <mxCell id="VtUgZ8RMURYfYbp3t8Ui-33" value="Inside IR Sensor Connector" style="rounded=0;whiteSpace=wrap;html=1;verticalAlign=bottom;" vertex="1" parent="VtUgZ8RMURYfYbp3t8Ui-32">
          <mxGeometry width="160" height="60" as="geometry" />
        </mxCell>
        <mxCell id="VtUgZ8RMURYfYbp3t8Ui-34" value="digital" style="rounded=0;whiteSpace=wrap;html=1;verticalAlign=bottom;" vertex="1" parent="VtUgZ8RMURYfYbp3t8Ui-32">
          <mxGeometry y="20" width="100" height="20" as="geometry" />
        </mxCell>
        <mxCell id="VtUgZ8RMURYfYbp3t8Ui-35" value="analog" style="rounded=0;whiteSpace=wrap;html=1;verticalAlign=bottom;" vertex="1" parent="VtUgZ8RMURYfYbp3t8Ui-32">
          <mxGeometry x="100" y="20" width="40" height="20" as="geometry" />
        </mxCell>
        <mxCell id="VtUgZ8RMURYfYbp3t8Ui-36" value="1" style="rounded=0;whiteSpace=wrap;html=1;" vertex="1" parent="VtUgZ8RMURYfYbp3t8Ui-32">
          <mxGeometry width="20" height="20" as="geometry" />
        </mxCell>
        <mxCell id="VtUgZ8RMURYfYbp3t8Ui-37" value="2" style="rounded=0;whiteSpace=wrap;html=1;" vertex="1" parent="VtUgZ8RMURYfYbp3t8Ui-32">
          <mxGeometry x="20" width="20" height="20" as="geometry" />
        </mxCell>
        <mxCell id="VtUgZ8RMURYfYbp3t8Ui-38" value="3" style="rounded=0;whiteSpace=wrap;html=1;" vertex="1" parent="VtUgZ8RMURYfYbp3t8Ui-32">
          <mxGeometry x="40" width="20" height="20" as="geometry" />
        </mxCell>
        <mxCell id="VtUgZ8RMURYfYbp3t8Ui-39" value="4" style="rounded=0;whiteSpace=wrap;html=1;" vertex="1" parent="VtUgZ8RMURYfYbp3t8Ui-32">
          <mxGeometry x="60" width="20" height="20" as="geometry" />
        </mxCell>
        <mxCell id="VtUgZ8RMURYfYbp3t8Ui-40" value="5" style="rounded=0;whiteSpace=wrap;html=1;" vertex="1" parent="VtUgZ8RMURYfYbp3t8Ui-32">
          <mxGeometry x="80" width="20" height="20" as="geometry" />
        </mxCell>
        <mxCell id="VtUgZ8RMURYfYbp3t8Ui-41" value="6" style="rounded=0;whiteSpace=wrap;html=1;" vertex="1" parent="VtUgZ8RMURYfYbp3t8Ui-32">
          <mxGeometry x="100" width="20" height="20" as="geometry" />
        </mxCell>
        <mxCell id="VtUgZ8RMURYfYbp3t8Ui-42" value="7" style="rounded=0;whiteSpace=wrap;html=1;" vertex="1" parent="VtUgZ8RMURYfYbp3t8Ui-32">
          <mxGeometry x="120" width="20" height="20" as="geometry" />
        </mxCell>
        <mxCell id="VtUgZ8RMURYfYbp3t8Ui-43" value="8" style="rounded=0;whiteSpace=wrap;html=1;" vertex="1" parent="VtUgZ8RMURYfYbp3t8Ui-32">
          <mxGeometry x="140" width="20" height="20" as="geometry" />
        </mxCell>
        <mxCell id="VtUgZ8RMURYfYbp3t8Ui-44" value="&lt;div&gt;IR LED&lt;/div&gt;&lt;div&gt;Vishay Semiconductor&lt;/div&gt;&lt;div&gt;TSAL6200&lt;/div&gt;" style="rounded=0;whiteSpace=wrap;html=1;" vertex="1" parent="1">
          <mxGeometry x="-310" y="220" width="90" height="60" as="geometry" />
        </mxCell>
        <mxCell id="VtUgZ8RMURYfYbp3t8Ui-45" value="" style="endArrow=classic;html=1;rounded=0;exitX=1;exitY=0.5;exitDx=0;exitDy=0;entryX=0;entryY=0.5;entryDx=0;entryDy=0;" edge="1" parent="1" source="VtUgZ8RMURYfYbp3t8Ui-15" target="VtUgZ8RMURYfYbp3t8Ui-44">
          <mxGeometry width="50" height="50" relative="1" as="geometry">
            <mxPoint x="-300" y="625" as="sourcePoint" />
            <mxPoint x="-374" y="247" as="targetPoint" />
          </mxGeometry>
        </mxCell>
        <mxCell id="VtUgZ8RMURYfYbp3t8Ui-46" value="PWM" style="rounded=0;whiteSpace=wrap;html=1;align=left;" vertex="1" parent="1">
          <mxGeometry x="-410" y="285" width="80" height="50" as="geometry" />
        </mxCell>
        <mxCell id="VtUgZ8RMURYfYbp3t8Ui-47" value="RA0" style="rounded=0;whiteSpace=wrap;html=1;" vertex="1" parent="1">
          <mxGeometry x="-370" y="295" width="40" height="30" as="geometry" />
        </mxCell>
        <mxCell id="VtUgZ8RMURYfYbp3t8Ui-48" value="&lt;div&gt;Red LED&lt;/div&gt;" style="rounded=0;whiteSpace=wrap;html=1;" vertex="1" parent="1">
          <mxGeometry x="-310" y="315" width="70" height="20" as="geometry" />
        </mxCell>
        <mxCell id="VtUgZ8RMURYfYbp3t8Ui-49" value="" style="endArrow=classic;html=1;rounded=0;entryX=0;entryY=0.5;entryDx=0;entryDy=0;exitX=1;exitY=1;exitDx=0;exitDy=0;" edge="1" parent="1" source="VtUgZ8RMURYfYbp3t8Ui-47" target="VtUgZ8RMURYfYbp3t8Ui-48">
          <mxGeometry width="50" height="50" relative="1" as="geometry">
            <mxPoint x="-350" y="325" as="sourcePoint" />
            <mxPoint x="-374" y="322" as="targetPoint" />
          </mxGeometry>
        </mxCell>
        <mxCell id="VtUgZ8RMURYfYbp3t8Ui-50" value="" style="group" connectable="0" vertex="1" parent="1">
          <mxGeometry x="-370" y="555" width="160" height="60" as="geometry" />
        </mxCell>
        <mxCell id="VtUgZ8RMURYfYbp3t8Ui-51" value="Motor Connector" style="rounded=0;whiteSpace=wrap;html=1;verticalAlign=bottom;" vertex="1" parent="VtUgZ8RMURYfYbp3t8Ui-50">
          <mxGeometry width="160" height="60" as="geometry" />
        </mxCell>
        <mxCell id="VtUgZ8RMURYfYbp3t8Ui-52" value="digital" style="rounded=0;whiteSpace=wrap;html=1;verticalAlign=bottom;" vertex="1" parent="VtUgZ8RMURYfYbp3t8Ui-50">
          <mxGeometry y="20" width="100" height="20" as="geometry" />
        </mxCell>
        <mxCell id="VtUgZ8RMURYfYbp3t8Ui-53" value="analog" style="rounded=0;whiteSpace=wrap;html=1;verticalAlign=bottom;" vertex="1" parent="VtUgZ8RMURYfYbp3t8Ui-50">
          <mxGeometry x="100" y="20" width="40" height="20" as="geometry" />
        </mxCell>
        <mxCell id="VtUgZ8RMURYfYbp3t8Ui-54" value="1" style="rounded=0;whiteSpace=wrap;html=1;" vertex="1" parent="VtUgZ8RMURYfYbp3t8Ui-50">
          <mxGeometry width="20" height="20" as="geometry" />
        </mxCell>
        <mxCell id="VtUgZ8RMURYfYbp3t8Ui-55" value="2" style="rounded=0;whiteSpace=wrap;html=1;" vertex="1" parent="VtUgZ8RMURYfYbp3t8Ui-50">
          <mxGeometry x="20" width="20" height="20" as="geometry" />
        </mxCell>
        <mxCell id="VtUgZ8RMURYfYbp3t8Ui-56" value="3" style="rounded=0;whiteSpace=wrap;html=1;" vertex="1" parent="VtUgZ8RMURYfYbp3t8Ui-50">
          <mxGeometry x="40" width="20" height="20" as="geometry" />
        </mxCell>
        <mxCell id="VtUgZ8RMURYfYbp3t8Ui-57" value="4" style="rounded=0;whiteSpace=wrap;html=1;" vertex="1" parent="VtUgZ8RMURYfYbp3t8Ui-50">
          <mxGeometry x="60" width="20" height="20" as="geometry" />
        </mxCell>
        <mxCell id="VtUgZ8RMURYfYbp3t8Ui-58" value="5" style="rounded=0;whiteSpace=wrap;html=1;" vertex="1" parent="VtUgZ8RMURYfYbp3t8Ui-50">
          <mxGeometry x="80" width="20" height="20" as="geometry" />
        </mxCell>
        <mxCell id="VtUgZ8RMURYfYbp3t8Ui-59" value="6" style="rounded=0;whiteSpace=wrap;html=1;" vertex="1" parent="VtUgZ8RMURYfYbp3t8Ui-50">
          <mxGeometry x="100" width="20" height="20" as="geometry" />
        </mxCell>
        <mxCell id="VtUgZ8RMURYfYbp3t8Ui-60" value="7" style="rounded=0;whiteSpace=wrap;html=1;" vertex="1" parent="VtUgZ8RMURYfYbp3t8Ui-50">
          <mxGeometry x="120" width="20" height="20" as="geometry" />
        </mxCell>
        <mxCell id="VtUgZ8RMURYfYbp3t8Ui-61" value="8" style="rounded=0;whiteSpace=wrap;html=1;" vertex="1" parent="VtUgZ8RMURYfYbp3t8Ui-50">
          <mxGeometry x="140" width="20" height="20" as="geometry" />
        </mxCell>
        <mxCell id="VtUgZ8RMURYfYbp3t8Ui-62" value="" style="endArrow=classic;html=1;rounded=0;exitX=0.5;exitY=0;exitDx=0;exitDy=0;" edge="1" parent="1" source="VtUgZ8RMURYfYbp3t8Ui-37" target="VtUgZ8RMURYfYbp3t8Ui-9">
          <mxGeometry width="50" height="50" relative="1" as="geometry">
            <mxPoint x="-410" y="505" as="sourcePoint" />
            <mxPoint x="-360" y="455" as="targetPoint" />
            <Array as="points">
              <mxPoint x="-510" y="515" />
              <mxPoint x="-580" y="515" />
            </Array>
          </mxGeometry>
        </mxCell>
        <mxCell id="VtUgZ8RMURYfYbp3t8Ui-63" value="PWM" style="rounded=0;whiteSpace=wrap;html=1;align=left;" vertex="1" parent="1">
          <mxGeometry x="-410" y="345" width="80" height="50" as="geometry" />
        </mxCell>
        <mxCell id="VtUgZ8RMURYfYbp3t8Ui-64" style="edgeStyle=orthogonalEdgeStyle;rounded=0;orthogonalLoop=1;jettySize=auto;html=1;exitX=1;exitY=0.5;exitDx=0;exitDy=0;entryX=0;entryY=0.25;entryDx=0;entryDy=0;" edge="1" parent="1" source="VtUgZ8RMURYfYbp3t8Ui-65" target="VtUgZ8RMURYfYbp3t8Ui-66">
          <mxGeometry relative="1" as="geometry" />
        </mxCell>
        <mxCell id="VtUgZ8RMURYfYbp3t8Ui-65" value="RB0" style="rounded=0;whiteSpace=wrap;html=1;" vertex="1" parent="1">
          <mxGeometry x="-370" y="355" width="40" height="30" as="geometry" />
        </mxCell>
        <mxCell id="VtUgZ8RMURYfYbp3t8Ui-66" value="Blue LED" style="rounded=0;whiteSpace=wrap;html=1;" vertex="1" parent="1">
          <mxGeometry x="-310" y="365" width="70" height="20" as="geometry" />
        </mxCell>
        <mxCell id="Ycq0mjjiSjFF1vbW3Is8-34" value="" style="group" connectable="0" vertex="1" parent="1">
          <mxGeometry x="-610" y="860" width="1130" height="990" as="geometry" />
        </mxCell>
        <mxCell id="Ycq0mjjiSjFF1vbW3Is8-1" value="" style="rounded=0;whiteSpace=wrap;html=1;align=center;spacingBottom=500;container=0;" vertex="1" parent="Ycq0mjjiSjFF1vbW3Is8-34">
          <mxGeometry width="1130" height="990" as="geometry" />
        </mxCell>
        <mxCell id="Ycq0mjjiSjFF1vbW3Is8-2" value="" style="group" connectable="0" vertex="1" parent="Ycq0mjjiSjFF1vbW3Is8-34">
          <mxGeometry x="588.4023668639054" y="137.1285616438356" width="522.9894082840235" height="392.2434246575342" as="geometry" />
        </mxCell>
        <mxCell id="Ycq0mjjiSjFF1vbW3Is8-3" value="" style="rounded=0;whiteSpace=wrap;html=1;container=0;" vertex="1" parent="Ycq0mjjiSjFF1vbW3Is8-2">
          <mxGeometry x="-6.686390532544379" width="522.9894082840236" height="392.2434246575342" as="geometry" />
        </mxCell>
        <mxCell id="Ycq0mjjiSjFF1vbW3Is8-4" value="&lt;font style=&quot;font-size: 30px;&quot;&gt;Microchip PIC18F57Q43 Curiosity Nano&lt;/font&gt;" style="text;html=1;align=center;verticalAlign=middle;whiteSpace=wrap;rounded=0;fontSize=20;container=0;" vertex="1" parent="Ycq0mjjiSjFF1vbW3Is8-2">
          <mxGeometry x="73.55029585798817" y="13.561643835616437" width="380.9838461538461" height="39.07787671232877" as="geometry" />
        </mxCell>
        <mxCell id="Ycq0mjjiSjFF1vbW3Is8-5" value="" style="group" connectable="0" vertex="1" parent="Ycq0mjjiSjFF1vbW3Is8-2">
          <mxGeometry x="173.84857645141904" y="268.3645890410958" width="342.55638452962876" height="124.76712328767123" as="geometry" />
        </mxCell>
        <mxCell id="Ycq0mjjiSjFF1vbW3Is8-6" value="" style="rounded=0;whiteSpace=wrap;html=1;container=0;" vertex="1" parent="Ycq0mjjiSjFF1vbW3Is8-5">
          <mxGeometry width="342.5563845296287" height="124.76712328767123" as="geometry" />
        </mxCell>
        <mxCell id="Ycq0mjjiSjFF1vbW3Is8-7" value="&lt;font style=&quot;font-size: 30px;&quot;&gt;Digital I/O&lt;/font&gt;" style="text;html=1;align=center;verticalAlign=middle;whiteSpace=wrap;rounded=0;container=1;" vertex="1" parent="Ycq0mjjiSjFF1vbW3Is8-5">
          <mxGeometry x="104.38792899408284" width="133.77461538461537" height="46.787671232876704" as="geometry" />
        </mxCell>
        <mxCell id="Ycq0mjjiSjFF1vbW3Is8-8" value="&lt;font style=&quot;font-size: 30px;&quot;&gt;RF0&lt;/font&gt;" style="rounded=0;whiteSpace=wrap;html=1;" vertex="1" parent="Ycq0mjjiSjFF1vbW3Is8-5">
          <mxGeometry x="104.38792899408284" y="61.027397260273965" width="127.0414201183432" height="63.73972602739725" as="geometry" />
        </mxCell>
        <mxCell id="Ycq0mjjiSjFF1vbW3Is8-9" value="" style="group" connectable="0" vertex="1" parent="Ycq0mjjiSjFF1vbW3Is8-2">
          <mxGeometry x="-6.684936969385329" y="188.35141201264486" width="133.72781065088756" height="95.9757534246575" as="geometry" />
        </mxCell>
        <mxCell id="Ycq0mjjiSjFF1vbW3Is8-10" value="&lt;font style=&quot;font-size: 25px;&quot;&gt;ADC1&lt;/font&gt;" style="rounded=0;whiteSpace=wrap;html=1;align=right;container=0;" vertex="1" parent="Ycq0mjjiSjFF1vbW3Is8-9">
          <mxGeometry width="133.72781065088756" height="95.9757534246575" as="geometry" />
        </mxCell>
        <mxCell id="Ycq0mjjiSjFF1vbW3Is8-11" value="&lt;font style=&quot;font-size: 25px;&quot;&gt;RA0&lt;/font&gt;" style="rounded=0;whiteSpace=wrap;html=1;container=0;" vertex="1" parent="Ycq0mjjiSjFF1vbW3Is8-9">
          <mxGeometry y="19.66281875658596" width="58.72395163365064" height="57.58482613277133" as="geometry" />
        </mxCell>
        <mxCell id="Ycq0mjjiSjFF1vbW3Is8-12" value="" style="edgeStyle=orthogonalEdgeStyle;rounded=0;orthogonalLoop=1;jettySize=auto;html=1;entryX=0;entryY=0.5;entryDx=0;entryDy=0;" edge="1" parent="Ycq0mjjiSjFF1vbW3Is8-34" source="Ycq0mjjiSjFF1vbW3Is8-31" target="Ycq0mjjiSjFF1vbW3Is8-11">
          <mxGeometry relative="1" as="geometry">
            <mxPoint x="538.2544378698225" y="301.74657534246563" as="targetPoint" />
          </mxGeometry>
        </mxCell>
        <mxCell id="Ycq0mjjiSjFF1vbW3Is8-13" value="" style="rounded=0;whiteSpace=wrap;html=1;" vertex="1" parent="Ycq0mjjiSjFF1vbW3Is8-34">
          <mxGeometry x="334.3195266272189" y="800.1369863013697" width="427.92899408284023" height="189.86301369863006" as="geometry" />
        </mxCell>
        <mxCell id="Ycq0mjjiSjFF1vbW3Is8-14" value="&lt;font style=&quot;font-size: 40px;&quot;&gt;1&lt;/font&gt;" style="whiteSpace=wrap;html=1;aspect=fixed;" vertex="1" parent="Ycq0mjjiSjFF1vbW3Is8-34">
          <mxGeometry x="334.3195266272189" y="800.1369863013697" width="47.97337278106508" height="47.97337278106508" as="geometry" />
        </mxCell>
        <mxCell id="Ycq0mjjiSjFF1vbW3Is8-15" value="&lt;font style=&quot;font-size: 40px;&quot;&gt;2&lt;/font&gt;" style="whiteSpace=wrap;html=1;aspect=fixed;" vertex="1" parent="Ycq0mjjiSjFF1vbW3Is8-34">
          <mxGeometry x="387.81065088757396" y="800.1369863013697" width="47.97337278106508" height="47.97337278106508" as="geometry" />
        </mxCell>
        <mxCell id="Ycq0mjjiSjFF1vbW3Is8-16" value="&lt;font style=&quot;font-size: 40px;&quot;&gt;3&lt;/font&gt;" style="whiteSpace=wrap;html=1;aspect=fixed;" vertex="1" parent="Ycq0mjjiSjFF1vbW3Is8-34">
          <mxGeometry x="441.30177514792894" y="800.1369863013697" width="47.97337278106508" height="47.97337278106508" as="geometry" />
        </mxCell>
        <mxCell id="Ycq0mjjiSjFF1vbW3Is8-17" value="&lt;font style=&quot;font-size: 40px;&quot;&gt;4&lt;/font&gt;" style="whiteSpace=wrap;html=1;aspect=fixed;" vertex="1" parent="Ycq0mjjiSjFF1vbW3Is8-34">
          <mxGeometry x="494.792899408284" y="800.1369863013697" width="47.97337278106508" height="47.97337278106508" as="geometry" />
        </mxCell>
        <mxCell id="Ycq0mjjiSjFF1vbW3Is8-18" value="&lt;font style=&quot;font-size: 40px;&quot;&gt;5&lt;/font&gt;" style="whiteSpace=wrap;html=1;aspect=fixed;" vertex="1" parent="Ycq0mjjiSjFF1vbW3Is8-34">
          <mxGeometry x="548.2840236686391" y="800.1369863013697" width="47.97337278106508" height="47.97337278106508" as="geometry" />
        </mxCell>
        <mxCell id="Ycq0mjjiSjFF1vbW3Is8-19" value="&lt;font style=&quot;font-size: 40px;&quot;&gt;6&lt;/font&gt;" style="whiteSpace=wrap;html=1;aspect=fixed;" vertex="1" parent="Ycq0mjjiSjFF1vbW3Is8-34">
          <mxGeometry x="601.7751479289941" y="800.1369863013697" width="47.97337278106508" height="47.97337278106508" as="geometry" />
        </mxCell>
        <mxCell id="Ycq0mjjiSjFF1vbW3Is8-20" value="&lt;font style=&quot;font-size: 40px;&quot;&gt;7&lt;/font&gt;" style="whiteSpace=wrap;html=1;aspect=fixed;" vertex="1" parent="Ycq0mjjiSjFF1vbW3Is8-34">
          <mxGeometry x="655.266272189349" y="800.1369863013697" width="47.97337278106508" height="47.97337278106508" as="geometry" />
        </mxCell>
        <mxCell id="Ycq0mjjiSjFF1vbW3Is8-21" value="&lt;font style=&quot;font-size: 40px;&quot;&gt;8&lt;/font&gt;" style="whiteSpace=wrap;html=1;aspect=fixed;" vertex="1" parent="Ycq0mjjiSjFF1vbW3Is8-34">
          <mxGeometry x="708.7573964497042" y="800.1369863013697" width="47.97337278106508" height="47.97337278106508" as="geometry" />
        </mxCell>
        <mxCell id="Ycq0mjjiSjFF1vbW3Is8-22" value="&lt;font style=&quot;font-size: 30px;&quot;&gt;digital&lt;/font&gt;" style="rounded=0;whiteSpace=wrap;html=1;" vertex="1" parent="Ycq0mjjiSjFF1vbW3Is8-34">
          <mxGeometry x="334.3195266272189" y="854.3835616438355" width="267.4556213017751" height="67.80821917808217" as="geometry" />
        </mxCell>
        <mxCell id="Ycq0mjjiSjFF1vbW3Is8-23" value="&lt;font style=&quot;font-size: 30px;&quot;&gt;analog&lt;/font&gt;" style="rounded=0;whiteSpace=wrap;html=1;" vertex="1" parent="Ycq0mjjiSjFF1vbW3Is8-34">
          <mxGeometry x="601.7751479289941" y="854.3835616438355" width="106.98224852071006" height="67.80821917808217" as="geometry" />
        </mxCell>
        <mxCell id="Ycq0mjjiSjFF1vbW3Is8-24" value="&lt;font style=&quot;font-size: 30px;&quot;&gt;connector 1&lt;/font&gt;" style="text;html=1;align=center;verticalAlign=middle;whiteSpace=wrap;rounded=0;" vertex="1" parent="Ycq0mjjiSjFF1vbW3Is8-34">
          <mxGeometry x="434.61538461538464" y="935.7534246575342" width="234.02366863905323" height="33.904109589041084" as="geometry" />
        </mxCell>
        <mxCell id="Ycq0mjjiSjFF1vbW3Is8-25" style="edgeStyle=orthogonalEdgeStyle;rounded=0;orthogonalLoop=1;jettySize=auto;html=1;exitX=0.5;exitY=1;exitDx=0;exitDy=0;entryX=0.5;entryY=0;entryDx=0;entryDy=0;" edge="1" parent="Ycq0mjjiSjFF1vbW3Is8-34" source="Ycq0mjjiSjFF1vbW3Is8-8" target="Ycq0mjjiSjFF1vbW3Is8-14">
          <mxGeometry relative="1" as="geometry" />
        </mxCell>
        <mxCell id="Ycq0mjjiSjFF1vbW3Is8-26" style="edgeStyle=orthogonalEdgeStyle;rounded=0;orthogonalLoop=1;jettySize=auto;html=1;exitX=1;exitY=0.5;exitDx=0;exitDy=0;entryX=0;entryY=0.5;entryDx=0;entryDy=0;" edge="1" parent="Ycq0mjjiSjFF1vbW3Is8-34" source="Ycq0mjjiSjFF1vbW3Is8-27" target="Ycq0mjjiSjFF1vbW3Is8-29">
          <mxGeometry relative="1" as="geometry" />
        </mxCell>
        <mxCell id="Ycq0mjjiSjFF1vbW3Is8-27" value="&lt;font style=&quot;font-size: 35px;&quot;&gt;Barrel Jack&lt;/font&gt;" style="whiteSpace=wrap;html=1;aspect=fixed;" vertex="1" parent="Ycq0mjjiSjFF1vbW3Is8-34">
          <mxGeometry x="113.66863905325442" y="40.6849315068493" width="137.92344674556213" height="137.92344674556213" as="geometry" />
        </mxCell>
        <mxCell id="Ycq0mjjiSjFF1vbW3Is8-28" style="edgeStyle=orthogonalEdgeStyle;rounded=0;orthogonalLoop=1;jettySize=auto;html=1;exitX=0.5;exitY=1;exitDx=0;exitDy=0;entryX=0;entryY=0.5;entryDx=0;entryDy=0;" edge="1" parent="Ycq0mjjiSjFF1vbW3Is8-34" source="Ycq0mjjiSjFF1vbW3Is8-29" target="Ycq0mjjiSjFF1vbW3Is8-33">
          <mxGeometry relative="1" as="geometry" />
        </mxCell>
        <mxCell id="Ycq0mjjiSjFF1vbW3Is8-29" value="&lt;font style=&quot;font-size: 35px;&quot;&gt;LM7805&lt;/font&gt;" style="whiteSpace=wrap;html=1;aspect=fixed;" vertex="1" parent="Ycq0mjjiSjFF1vbW3Is8-34">
          <mxGeometry x="347.69230769230774" y="40.6849315068493" width="137.92344674556213" height="137.92344674556213" as="geometry" />
        </mxCell>
        <mxCell id="Ycq0mjjiSjFF1vbW3Is8-30" value="" style="group" connectable="0" vertex="1" parent="Ycq0mjjiSjFF1vbW3Is8-34">
          <mxGeometry x="180.5325443786982" y="402.7265753424657" width="193.90532544378698" height="142.39726027397253" as="geometry" />
        </mxCell>
        <mxCell id="Ycq0mjjiSjFF1vbW3Is8-31" value="" style="rounded=0;whiteSpace=wrap;html=1;" vertex="1" parent="Ycq0mjjiSjFF1vbW3Is8-30">
          <mxGeometry width="193.90532544378698" height="142.39726027397253" as="geometry" />
        </mxCell>
        <mxCell id="Ycq0mjjiSjFF1vbW3Is8-32" value="Weight Sensor" style="text;html=1;align=center;verticalAlign=middle;whiteSpace=wrap;rounded=0;fontSize=40;" vertex="1" parent="Ycq0mjjiSjFF1vbW3Is8-30">
          <mxGeometry x="76.89349112426035" y="49.866164383561596" width="50.14792899408283" height="40.684931506849296" as="geometry" />
        </mxCell>
        <mxCell id="Ycq0mjjiSjFF1vbW3Is8-33" value="&lt;font style=&quot;font-size: 25px;&quot;&gt;VDD&lt;/font&gt;" style="whiteSpace=wrap;html=1;aspect=fixed;" vertex="1" parent="Ycq0mjjiSjFF1vbW3Is8-34">
          <mxGeometry x="581.7159763313608" y="237.32876712328763" width="53.97004437869822" height="53.97004437869822" as="geometry" />
        </mxCell>
        <mxCell id="Ycq0mjjiSjFF1vbW3Is8-36" value="&lt;font style=&quot;font-size: 30px;&quot;&gt;Damian&lt;/font&gt;" style="text;html=1;align=center;verticalAlign=middle;whiteSpace=wrap;rounded=0;" vertex="1" parent="Ycq0mjjiSjFF1vbW3Is8-34">
          <mxGeometry x="590" y="30" width="60" height="30" as="geometry" />
        </mxCell>
        <mxCell id="Ycq0mjjiSjFF1vbW3Is8-35" style="edgeStyle=orthogonalEdgeStyle;rounded=0;orthogonalLoop=1;jettySize=auto;html=1;exitX=0.5;exitY=1;exitDx=0;exitDy=0;entryX=0.5;entryY=1;entryDx=0;entryDy=0;" edge="1" parent="1" source="VtUgZ8RMURYfYbp3t8Ui-21" target="Ycq0mjjiSjFF1vbW3Is8-1">
          <mxGeometry relative="1" as="geometry" />
        </mxCell>
        <mxCell id="Ycq0mjjiSjFF1vbW3Is8-37" value="Mo" style="rounded=0;whiteSpace=wrap;html=1;fillColor=none;verticalAlign=top;" vertex="1" parent="1">
          <mxGeometry x="860" y="1400" width="620" height="430" as="geometry" />
        </mxCell>
        <mxCell id="Ycq0mjjiSjFF1vbW3Is8-38" value="Microchip PIC18F57Q43 Curiosity Nano" style="rounded=0;whiteSpace=wrap;html=1;verticalAlign=top;fillColor=none;movable=1;resizable=1;rotatable=1;deletable=1;editable=1;locked=0;connectable=1;" vertex="1" parent="1">
          <mxGeometry x="1000" y="1510" width="260" height="180" as="geometry" />
        </mxCell>
        <mxCell id="Ycq0mjjiSjFF1vbW3Is8-39" value="Digital I/O" style="rounded=0;whiteSpace=wrap;html=1;fillColor=none;verticalAlign=top;" vertex="1" parent="1">
          <mxGeometry x="1040" y="1630" width="180" height="60" as="geometry" />
        </mxCell>
        <mxCell id="Ycq0mjjiSjFF1vbW3Is8-40" value="" style="edgeStyle=orthogonalEdgeStyle;rounded=0;orthogonalLoop=1;jettySize=auto;html=1;entryX=0.5;entryY=0;entryDx=0;entryDy=0;exitX=0.5;exitY=1;exitDx=0;exitDy=0;" edge="1" parent="1" source="Ycq0mjjiSjFF1vbW3Is8-41" target="Ycq0mjjiSjFF1vbW3Is8-60">
          <mxGeometry relative="1" as="geometry">
            <Array as="points">
              <mxPoint x="1020" y="1610" />
              <mxPoint x="1020" y="1635" />
              <mxPoint x="960" y="1635" />
            </Array>
          </mxGeometry>
        </mxCell>
        <mxCell id="Ycq0mjjiSjFF1vbW3Is8-41" value="ADC1" style="rounded=0;whiteSpace=wrap;html=1;align=right;" vertex="1" parent="1">
          <mxGeometry x="1000" y="1560" width="80" height="50" as="geometry" />
        </mxCell>
        <mxCell id="Ycq0mjjiSjFF1vbW3Is8-42" style="edgeStyle=orthogonalEdgeStyle;rounded=0;orthogonalLoop=1;jettySize=auto;html=1;exitX=0.5;exitY=1;exitDx=0;exitDy=0;entryX=1;entryY=0.5;entryDx=0;entryDy=0;" edge="1" parent="1" source="Ycq0mjjiSjFF1vbW3Is8-43" target="Ycq0mjjiSjFF1vbW3Is8-47">
          <mxGeometry relative="1" as="geometry" />
        </mxCell>
        <mxCell id="Ycq0mjjiSjFF1vbW3Is8-43" value="RB2" style="rounded=0;whiteSpace=wrap;html=1;" vertex="1" parent="1">
          <mxGeometry x="1050" y="1660" width="40" height="30" as="geometry" />
        </mxCell>
        <mxCell id="Ycq0mjjiSjFF1vbW3Is8-44" style="edgeStyle=orthogonalEdgeStyle;rounded=0;orthogonalLoop=1;jettySize=auto;html=1;exitX=0.5;exitY=1;exitDx=0;exitDy=0;entryX=1;entryY=0.5;entryDx=0;entryDy=0;" edge="1" parent="1" source="Ycq0mjjiSjFF1vbW3Is8-46" target="Ycq0mjjiSjFF1vbW3Is8-49">
          <mxGeometry relative="1" as="geometry" />
        </mxCell>
        <mxCell id="Ycq0mjjiSjFF1vbW3Is8-45" style="edgeStyle=orthogonalEdgeStyle;rounded=0;orthogonalLoop=1;jettySize=auto;html=1;exitX=0.75;exitY=1;exitDx=0;exitDy=0;" edge="1" parent="1" source="Ycq0mjjiSjFF1vbW3Is8-46" target="Ycq0mjjiSjFF1vbW3Is8-71">
          <mxGeometry relative="1" as="geometry" />
        </mxCell>
        <mxCell id="Ycq0mjjiSjFF1vbW3Is8-46" value="&lt;div&gt;RC4&lt;/div&gt;" style="rounded=0;whiteSpace=wrap;html=1;" vertex="1" parent="1">
          <mxGeometry x="1090" y="1660" width="40" height="30" as="geometry" />
        </mxCell>
        <mxCell id="Ycq0mjjiSjFF1vbW3Is8-47" value="Button 1" style="rounded=0;whiteSpace=wrap;html=1;" vertex="1" parent="1">
          <mxGeometry x="860" y="1710" width="60" height="30" as="geometry" />
        </mxCell>
        <mxCell id="Ycq0mjjiSjFF1vbW3Is8-48" value="&lt;span style=&quot;background-color: rgb(255, 255, 102);&quot;&gt;Spare&lt;/span&gt;" style="rounded=0;whiteSpace=wrap;html=1;labelBackgroundColor=none;" vertex="1" parent="1">
          <mxGeometry x="1170" y="1660" width="40" height="30" as="geometry" />
        </mxCell>
        <mxCell id="Ycq0mjjiSjFF1vbW3Is8-49" value="Button 2" style="rounded=0;whiteSpace=wrap;html=1;" vertex="1" parent="1">
          <mxGeometry x="860" y="1740" width="60" height="30" as="geometry" />
        </mxCell>
        <mxCell id="Ycq0mjjiSjFF1vbW3Is8-50" value="RA0" style="rounded=0;whiteSpace=wrap;html=1;" vertex="1" parent="1">
          <mxGeometry x="1000" y="1570" width="40" height="30" as="geometry" />
        </mxCell>
        <mxCell id="Ycq0mjjiSjFF1vbW3Is8-51" value="&lt;div align=&quot;left&quot;&gt;DAC1&lt;/div&gt;" style="rounded=0;whiteSpace=wrap;html=1;align=left;" vertex="1" parent="1">
          <mxGeometry x="1180" y="1560" width="80" height="50" as="geometry" />
        </mxCell>
        <mxCell id="Ycq0mjjiSjFF1vbW3Is8-52" style="edgeStyle=orthogonalEdgeStyle;rounded=0;orthogonalLoop=1;jettySize=auto;html=1;exitX=1;exitY=0.5;exitDx=0;exitDy=0;entryX=0.5;entryY=0;entryDx=0;entryDy=0;" edge="1" parent="1" source="Ycq0mjjiSjFF1vbW3Is8-53" target="Ycq0mjjiSjFF1vbW3Is8-88">
          <mxGeometry relative="1" as="geometry" />
        </mxCell>
        <mxCell id="Ycq0mjjiSjFF1vbW3Is8-53" value="&lt;div&gt;RA2&lt;/div&gt;" style="rounded=0;whiteSpace=wrap;html=1;" vertex="1" parent="1">
          <mxGeometry x="1220" y="1570" width="40" height="30" as="geometry" />
        </mxCell>
        <mxCell id="Ycq0mjjiSjFF1vbW3Is8-54" style="edgeStyle=orthogonalEdgeStyle;rounded=0;orthogonalLoop=1;jettySize=auto;html=1;entryX=0.5;entryY=0;entryDx=0;entryDy=0;" edge="1" parent="1" source="Ycq0mjjiSjFF1vbW3Is8-55" target="Ycq0mjjiSjFF1vbW3Is8-57">
          <mxGeometry relative="1" as="geometry" />
        </mxCell>
        <mxCell id="Ycq0mjjiSjFF1vbW3Is8-55" value="&lt;div&gt;Photoresistor (GL5528)&lt;/div&gt;" style="rounded=0;whiteSpace=wrap;html=1;" vertex="1" parent="1">
          <mxGeometry x="860" y="1490" width="110" height="50" as="geometry" />
        </mxCell>
        <mxCell id="Ycq0mjjiSjFF1vbW3Is8-56" value="" style="edgeStyle=orthogonalEdgeStyle;rounded=0;orthogonalLoop=1;jettySize=auto;html=1;" edge="1" parent="1" source="Ycq0mjjiSjFF1vbW3Is8-57" target="Ycq0mjjiSjFF1vbW3Is8-50">
          <mxGeometry relative="1" as="geometry" />
        </mxCell>
        <mxCell id="Ycq0mjjiSjFF1vbW3Is8-57" value="&lt;div&gt;Op Amp&lt;/div&gt;&lt;div&gt;&lt;div&gt;&lt;div&gt;Microchip Technology&lt;/div&gt;&lt;div&gt;MCP6004-I/P&lt;/div&gt;&lt;/div&gt;&lt;/div&gt;" style="rounded=0;whiteSpace=wrap;html=1;" vertex="1" parent="1">
          <mxGeometry x="860" y="1550" width="110" height="70" as="geometry" />
        </mxCell>
        <mxCell id="Ycq0mjjiSjFF1vbW3Is8-58" value="digital" style="rounded=0;whiteSpace=wrap;html=1;verticalAlign=bottom;" vertex="1" parent="1">
          <mxGeometry x="950" y="1790" width="100" height="20" as="geometry" />
        </mxCell>
        <mxCell id="Ycq0mjjiSjFF1vbW3Is8-59" value="analog" style="rounded=0;whiteSpace=wrap;html=1;verticalAlign=bottom;" vertex="1" parent="1">
          <mxGeometry x="1030" y="1790" width="60" height="20" as="geometry" />
        </mxCell>
        <mxCell id="Ycq0mjjiSjFF1vbW3Is8-60" value="1" style="rounded=0;whiteSpace=wrap;html=1;" vertex="1" parent="1">
          <mxGeometry x="950" y="1770" width="20" height="20" as="geometry" />
        </mxCell>
        <mxCell id="Ycq0mjjiSjFF1vbW3Is8-61" value="2" style="rounded=0;whiteSpace=wrap;html=1;" vertex="1" parent="1">
          <mxGeometry x="970" y="1770" width="20" height="20" as="geometry" />
        </mxCell>
        <mxCell id="Ycq0mjjiSjFF1vbW3Is8-62" value="3" style="rounded=0;whiteSpace=wrap;html=1;" vertex="1" parent="1">
          <mxGeometry x="990" y="1770" width="20" height="20" as="geometry" />
        </mxCell>
        <mxCell id="Ycq0mjjiSjFF1vbW3Is8-63" value="4" style="rounded=0;whiteSpace=wrap;html=1;" vertex="1" parent="1">
          <mxGeometry x="1010" y="1770" width="20" height="20" as="geometry" />
        </mxCell>
        <mxCell id="Ycq0mjjiSjFF1vbW3Is8-64" value="5" style="rounded=0;whiteSpace=wrap;html=1;" vertex="1" parent="1">
          <mxGeometry x="1030" y="1770" width="20" height="20" as="geometry" />
        </mxCell>
        <mxCell id="Ycq0mjjiSjFF1vbW3Is8-65" value="6" style="rounded=0;whiteSpace=wrap;html=1;" vertex="1" parent="1">
          <mxGeometry x="1050" y="1770" width="20" height="20" as="geometry" />
        </mxCell>
        <mxCell id="Ycq0mjjiSjFF1vbW3Is8-66" value="7" style="rounded=0;whiteSpace=wrap;html=1;" vertex="1" parent="1">
          <mxGeometry x="1070" y="1770" width="20" height="20" as="geometry" />
        </mxCell>
        <mxCell id="Ycq0mjjiSjFF1vbW3Is8-67" value="8" style="rounded=0;whiteSpace=wrap;html=1;" vertex="1" parent="1">
          <mxGeometry x="1090" y="1770" width="20" height="20" as="geometry" />
        </mxCell>
        <mxCell id="Ycq0mjjiSjFF1vbW3Is8-68" value="digital" style="rounded=0;whiteSpace=wrap;html=1;verticalAlign=bottom;" vertex="1" parent="1">
          <mxGeometry x="1120" y="1790" width="100" height="20" as="geometry" />
        </mxCell>
        <mxCell id="Ycq0mjjiSjFF1vbW3Is8-69" value="analog" style="rounded=0;whiteSpace=wrap;html=1;verticalAlign=bottom;" vertex="1" parent="1">
          <mxGeometry x="1220" y="1790" width="40" height="20" as="geometry" />
        </mxCell>
        <mxCell id="Ycq0mjjiSjFF1vbW3Is8-70" value="1" style="rounded=0;whiteSpace=wrap;html=1;" vertex="1" parent="1">
          <mxGeometry x="1120" y="1770" width="20" height="20" as="geometry" />
        </mxCell>
        <mxCell id="Ycq0mjjiSjFF1vbW3Is8-71" value="2" style="rounded=0;whiteSpace=wrap;html=1;" vertex="1" parent="1">
          <mxGeometry x="1140" y="1770" width="20" height="20" as="geometry" />
        </mxCell>
        <mxCell id="Ycq0mjjiSjFF1vbW3Is8-72" value="3" style="rounded=0;whiteSpace=wrap;html=1;" vertex="1" parent="1">
          <mxGeometry x="1160" y="1770" width="20" height="20" as="geometry" />
        </mxCell>
        <mxCell id="Ycq0mjjiSjFF1vbW3Is8-73" value="4" style="rounded=0;whiteSpace=wrap;html=1;" vertex="1" parent="1">
          <mxGeometry x="1180" y="1770" width="20" height="20" as="geometry" />
        </mxCell>
        <mxCell id="Ycq0mjjiSjFF1vbW3Is8-74" value="5" style="rounded=0;whiteSpace=wrap;html=1;" vertex="1" parent="1">
          <mxGeometry x="1200" y="1770" width="20" height="20" as="geometry" />
        </mxCell>
        <mxCell id="Ycq0mjjiSjFF1vbW3Is8-75" value="6" style="rounded=0;whiteSpace=wrap;html=1;" vertex="1" parent="1">
          <mxGeometry x="1220" y="1770" width="20" height="20" as="geometry" />
        </mxCell>
        <mxCell id="Ycq0mjjiSjFF1vbW3Is8-76" value="7" style="rounded=0;whiteSpace=wrap;html=1;" vertex="1" parent="1">
          <mxGeometry x="1240" y="1770" width="20" height="20" as="geometry" />
        </mxCell>
        <mxCell id="Ycq0mjjiSjFF1vbW3Is8-77" value="8" style="rounded=0;whiteSpace=wrap;html=1;" vertex="1" parent="1">
          <mxGeometry x="1260" y="1770" width="20" height="20" as="geometry" />
        </mxCell>
        <mxCell id="Ycq0mjjiSjFF1vbW3Is8-78" value="GND" style="whiteSpace=wrap;html=1;aspect=fixed;" vertex="1" parent="1">
          <mxGeometry x="1090" y="1790" width="20" height="20" as="geometry" />
        </mxCell>
        <mxCell id="Ycq0mjjiSjFF1vbW3Is8-79" value="GND" style="whiteSpace=wrap;html=1;aspect=fixed;" vertex="1" parent="1">
          <mxGeometry x="1260" y="1790" width="20" height="20" as="geometry" />
        </mxCell>
        <mxCell id="Ycq0mjjiSjFF1vbW3Is8-80" value="Light Sensor connector" style="rounded=0;whiteSpace=wrap;html=1;" vertex="1" parent="1">
          <mxGeometry x="950" y="1810" width="160" height="20" as="geometry" />
        </mxCell>
        <mxCell id="Ycq0mjjiSjFF1vbW3Is8-81" style="edgeStyle=orthogonalEdgeStyle;rounded=0;orthogonalLoop=1;jettySize=auto;html=1;exitX=0.25;exitY=1;exitDx=0;exitDy=0;" edge="1" parent="1" source="Ycq0mjjiSjFF1vbW3Is8-39">
          <mxGeometry relative="1" as="geometry">
            <mxPoint x="1130" y="1770" as="targetPoint" />
            <Array as="points">
              <mxPoint x="1085" y="1740" />
              <mxPoint x="1130" y="1740" />
            </Array>
          </mxGeometry>
        </mxCell>
        <mxCell id="Ycq0mjjiSjFF1vbW3Is8-82" value="digital" style="rounded=0;whiteSpace=wrap;html=1;verticalAlign=bottom;" vertex="1" parent="1">
          <mxGeometry x="1320" y="1790" width="100" height="20" as="geometry" />
        </mxCell>
        <mxCell id="Ycq0mjjiSjFF1vbW3Is8-83" value="analog" style="rounded=0;whiteSpace=wrap;html=1;verticalAlign=bottom;" vertex="1" parent="1">
          <mxGeometry x="1420" y="1790" width="40" height="20" as="geometry" />
        </mxCell>
        <mxCell id="Ycq0mjjiSjFF1vbW3Is8-84" value="1" style="rounded=0;whiteSpace=wrap;html=1;" vertex="1" parent="1">
          <mxGeometry x="1320" y="1770" width="20" height="20" as="geometry" />
        </mxCell>
        <mxCell id="Ycq0mjjiSjFF1vbW3Is8-85" value="2" style="rounded=0;whiteSpace=wrap;html=1;" vertex="1" parent="1">
          <mxGeometry x="1340" y="1770" width="20" height="20" as="geometry" />
        </mxCell>
        <mxCell id="Ycq0mjjiSjFF1vbW3Is8-86" value="3" style="rounded=0;whiteSpace=wrap;html=1;" vertex="1" parent="1">
          <mxGeometry x="1360" y="1770" width="20" height="20" as="geometry" />
        </mxCell>
        <mxCell id="Ycq0mjjiSjFF1vbW3Is8-87" value="4" style="rounded=0;whiteSpace=wrap;html=1;" vertex="1" parent="1">
          <mxGeometry x="1380" y="1770" width="20" height="20" as="geometry" />
        </mxCell>
        <mxCell id="Ycq0mjjiSjFF1vbW3Is8-88" value="5" style="rounded=0;whiteSpace=wrap;html=1;" vertex="1" parent="1">
          <mxGeometry x="1400" y="1770" width="20" height="20" as="geometry" />
        </mxCell>
        <mxCell id="Ycq0mjjiSjFF1vbW3Is8-89" value="6" style="rounded=0;whiteSpace=wrap;html=1;" vertex="1" parent="1">
          <mxGeometry x="1420" y="1770" width="20" height="20" as="geometry" />
        </mxCell>
        <mxCell id="Ycq0mjjiSjFF1vbW3Is8-90" value="7" style="rounded=0;whiteSpace=wrap;html=1;" vertex="1" parent="1">
          <mxGeometry x="1440" y="1770" width="20" height="20" as="geometry" />
        </mxCell>
        <mxCell id="Ycq0mjjiSjFF1vbW3Is8-91" value="8" style="rounded=0;whiteSpace=wrap;html=1;" vertex="1" parent="1">
          <mxGeometry x="1460" y="1770" width="20" height="20" as="geometry" />
        </mxCell>
        <mxCell id="Ycq0mjjiSjFF1vbW3Is8-92" value="GND" style="whiteSpace=wrap;html=1;aspect=fixed;" vertex="1" parent="1">
          <mxGeometry x="1460" y="1790" width="20" height="20" as="geometry" />
        </mxCell>
        <mxCell id="Ycq0mjjiSjFF1vbW3Is8-93" value="Buttons Connector" style="rounded=0;whiteSpace=wrap;html=1;" vertex="1" parent="1">
          <mxGeometry x="1120" y="1810" width="160" height="20" as="geometry" />
        </mxCell>
        <mxCell id="Ycq0mjjiSjFF1vbW3Is8-94" value="Expansion Connector" style="rounded=0;whiteSpace=wrap;html=1;" vertex="1" parent="1">
          <mxGeometry x="1320" y="1810" width="160" height="20" as="geometry" />
        </mxCell>
      </root>
    </mxGraphModel>
  </diagram>
</mxfile>
